<?xml version="1.0" standalone="no"?>
<!DOCTYPE svg PUBLIC "-//W3C//DTD SVG 20010904//EN"
 "http://www.w3.org/TR/2001/REC-SVG-20010904/DTD/svg10.dtd">
<svg version="1.0" xmlns="http://www.w3.org/2000/svg"
 width="162.000000pt" height="50.000000pt" viewBox="0 0 162.000000 50.000000"
 preserveAspectRatio="xMidYMid meet">

<g transform="translate(0.000000,50.000000) scale(0.100000,-0.100000)"
fill="#000000" stroke="none">
<path d="M193 413 l-63 -4 0 -36 c0 -28 -9 -45 -40 -79 -42 -46 -57 -83 -45
-111 6 -14 10 -10 15 19 11 61 75 137 155 184 25 14 45 28 45 30 0 2 -1 3 -2
2 -2 -1 -31 -3 -65 -5z"/>
<path d="M273 389 c-18 -12 -33 -23 -33 -25 0 -2 22 -4 49 -4 41 0 51 4 65 25
16 25 16 25 -16 25 -18 0 -48 -10 -65 -21z"/>
<path d="M415 388 c-15 -23 -15 -23 30 -26 l45 -3 0 -80 0 -79 30 0 30 0 0 80
0 80 38 0 c35 0 72 22 72 43 0 4 -51 7 -114 7 -108 0 -116 -1 -131 -22z"/>
<path d="M700 305 l0 -105 104 0 c100 0 104 1 120 25 l16 25 -91 0 c-81 0 -90
2 -87 18 3 14 16 18 69 20 51 2 71 7 84 22 18 20 17 20 -68 20 -71 0 -87 3
-87 15 0 12 15 15 73 15 65 1 74 3 90 25 l18 25 -121 0 -120 0 0 -105z"/>
<path d="M1030 391 c-22 -12 -40 -31 -48 -54 -12 -30 -12 -39 3 -70 24 -50 68
-69 156 -65 61 3 74 6 87 26 l14 22 -89 0 c-97 0 -123 12 -123 58 0 35 37 52
111 52 60 0 68 2 83 25 l16 25 -87 0 c-67 0 -97 -5 -123 -19z"/>
<path d="M1280 305 l0 -105 29 0 c28 0 30 3 33 43 l3 42 65 0 65 0 3 -42 c3
-40 5 -43 33 -43 l29 0 0 105 0 105 -30 0 c-28 0 -30 -2 -30 -40 l0 -40 -70 0
-70 0 0 40 c0 38 -2 40 -30 40 l-30 0 0 -105z"/>
<path d="M174 308 c-40 -46 -45 -56 -38 -82 6 -26 7 -26 105 -26 90 0 99 2
114 23 l15 22 -90 3 c-80 2 -91 5 -88 20 3 14 17 18 73 20 57 2 73 6 83 22 12
19 9 20 -71 20 -74 0 -86 -3 -103 -22z"/>
<path d="M150 115 c-11 -13 -6 -15 34 -15 61 0 60 -18 -1 -22 -42 -3 -48 -6
-45 -23 5 -26 13 -34 19 -17 3 6 17 12 31 12 70 0 100 31 62 62 -27 22 -83 23
-100 3z"/>
<path d="M457 123 c-4 -3 -7 -26 -7 -50 l0 -43 50 0 c55 0 69 17 18 22 -30 3
-33 6 -36 41 -3 35 -11 45 -25 30z"/>
<path d="M772 86 c-18 -24 -32 -47 -32 -50 0 -17 28 -2 51 26 26 31 26 31 38
10 11 -20 9 -22 -14 -22 -14 0 -25 -4 -25 -10 0 -5 23 -10 51 -10 l51 0 -17
28 c-22 33 -56 72 -65 72 -4 0 -21 -20 -38 -44z"/>
<path d="M1087 123 c-15 -14 -6 -23 24 -23 l31 0 -31 -26 c-17 -14 -31 -30
-31 -35 0 -12 107 -12 115 1 4 6 -9 10 -32 10 l-38 1 37 30 c21 17 35 35 32
40 -6 10 -97 12 -107 2z"/>
<path d="M1416 83 c-28 -38 -32 -49 -19 -51 8 -2 18 0 22 5 37 54 42 58 51 43
14 -22 12 -30 -9 -30 -11 0 -23 -4 -26 -10 -4 -6 15 -10 50 -10 l57 0 -35 47
c-19 26 -40 49 -45 51 -6 2 -27 -18 -46 -45z"/>
</g>
</svg>
